<?xml version="1.0" encoding="UTF-8"?>
<svg version="1.1" viewBox="0 0 2048 455" width="454" height="101" xmlns="http://www.w3.org/2000/svg">
<path transform="translate(346,73)" d="m0 0h16l14 3 15 6 13 7 14 11 9 10 7 12 6 15 3 14 1 8v21l-4 16-5 12-8 14-14 19-9 14-5 13-3 13-2 2h-15l-24-1-3-7v-11l6-7 3-6-1-8-5-5-2-1h-7l-6 4-2 3 1 8 6 11 2 6-1 12-1 1-39 1-3-4-7-23-6-10-14-18-11-18-6-13-4-13-1-6v-24l3-13 8-18 8-12 9-10 10-9 14-9 11-5 14-3zm-26 22-9 4-10 10-10 7-7 7-4 11-3 8-6 8-2 8 1 13 5 9 3 3-1 5-1 3v8l3 8 7 9 10 6 6 3 9 10 6 3h9l9-4 4-5 2-4 1-6 1-19 3-6 4-6-4-9-2-5v-7l2-7-1-9-4-11v-7l5-12-1-8-5-10-7-6-5-2zm53 0-8 3-8 7-5 10v7l7 12-1 7-4 9-1 4v8l1 4v9l-1 3-1 12 5 13-2 12v6l6 9 7 7 6 2 8-1 8-4 10-11 13-7 5-6 4-10 1-4v-16l7-13 1-8-4-9-7-9-4-16-7-8-7-6h-2l-2-4-13-10-6-2z" fill="#DB34E4"/>
<path transform="translate(1449,163)" d="m0 0h14l12 3 8 3 5-1 3-3h13l13 1 1 1v100l-2 19-4 11-8 11-9 7-10 4-15 2h-19l-21-3-14-5-6-5v-6l6-10 4-5 9 3 12 5 10 2h14l10-3 8-6 4-7v-8l-9 1-17 3h-14l-16-3-8-4-10-9-7-8-7-14-2-10v-17l4-16 7-12 8-8 10-6 9-4zm5 24-10 3-8 6-7 8-3 8-1 6v8l3 10 7 8 7 5 11 3h11l11-4 9-8 5-9 1-4v-14l-4-9-7-8-8-6-11-3z" fill="#DB34E4"/>
<path transform="translate(1260,163)" d="m0 0h10l9 3 8 5 13-6 4-1h24l12 3 11 6 12 11 7 13 3 16v17l-4 15-6 12-11 12-10 5-19 5-12 1-11-2-12-4h-5l-2 6v18l-1 9-4 6-5 2h-9l-7-3-2-4-1-13-1-71v-56l5-4zm46 25-9 3-9 7-6 10-2 8v14l4 10 7 9 9 6 3 1h14l11-4 9-7 5-8 2-6v-17l-7-14-9-8-7-3-6-1z" fill="#B027E3"/>
<path transform="translate(933,163)" d="m0 0h17l11 3 11 7 10 10 8 13 4 12 1 6v12l-3 16-5 12-8 10-9 7-8 4-14 4-13 2-11-1-21-9-1 27-2 8-5 7-5 2h-7l-7-2-2-3-1-5v-138l2-2h18l8 2 6 5 16-7zm-7 25-9 3-10 9-4 9-2 12 1 13 5 10 7 7 11 5 9 1 12-3 9-6 6-8 4-11v-16l-6-12-8-8-8-4-4-1z" fill="#AF27E3"/>
<path transform="translate(1154,164)" d="m0 0h18l14 3 16 8 9 8 7 11 5 12 2 8v14l-5 5-6 1-17 1h-41l-5-1h-11l-4 1 1 6 4 6 5 4 6 3 4 1h12l12-3 10-5 3-2 9 2 10 6 2 2-1 5-8 8-10 6-10 4-14 3h-22l-12-4-11-6-11-10-7-11-4-9-2-18 2-16 4-12 6-9 7-7 14-9 9-4zm-1 25-8 4-7 8-4 8 1 3 17 1h36l4-1-3-9-6-8-4-3-6-2-8-1z" fill="#B027E3"/>
<path transform="translate(640,163)" d="m0 0h12l11 2 13 6h4l3-4 8-1h20l1 1v87l-1 16-4 5-9 3h-8l-10-5-10 3-11 3-8 1h-11l-13-2-14-7-9-8-8-13-4-12-2-15 1-15 4-12 6-11 9-10 14-8 9-3zm2 25-10 5-7 7-5 11-1 5v13l4 10 7 9 7 5 9 3h13l9-4 8-7 5-7 3-9v-11l-4-12-5-8-8-7-9-3z" fill="#B027E3"/>
<path transform="translate(1782,165)" d="m0 0h24l4 2v65l3 13 4 6 4 3 3 1h13l10-5 5-7 2-15 2-61 1-2 25 1 3 1v94l-1 13-2 5-17-1-13-3-9 2-12 3-14 1-12-2-10-5-9-8-4-8-3-14-2-21v-14l1-3v-10l-1-23 2-6z" fill="#DC35E5"/>
<path transform="translate(1637,163)" d="m0 0 13 1 7 3v97l-1 12-1 1-9 1h-15l-5-4-9 2-10 3-8 1h-21l-10-5-10-10-4-10-2-9-1-10v-55l1-16 1-1h18l9 1 1 1 1 68 2 11 4 6 3 3 6 2h12l10-5 6-10 1-5 1-46 1-24 3-2z" fill="#DB34E4"/>
<path transform="translate(346,73)" d="m0 0h16l11 2 1 4 4-1 6 3 4 3 6 1 3 5v3l-5-2-6 3-1-4-6-2v-3h-2v-2h-4l-1 1h-7l-1 5 7 2-1 4-3 3-9 7-7 13h-3l-1-2v-7l-4-4-12-8-3-1h-8l-9 4-10 10-10 7-7 8-5 16-6 7-3 10 1 13 5 9 3 3-1 5-1 3v8l3 8 7 9 15 8 9 10 5 4 6 1h10l1 1 1 12 4 7 5 1 3 4 1 7-1 10-1 1-39 1-3-4-7-23-6-10-14-18-11-18-6-13-4-13-1-6v-24l3-13 8-18 8-12 9-10 10-9 14-9 11-5 14-3z" fill="#B127E3"/>
<path transform="translate(318,103)" d="m0 0h10l6 4 4 5 1 2v9l-6 8-5 3-4 1h-10l3 6 2 1h14l4 4 3 7v8l-4 8-7 5-5-1-6-2 1 13 1 3 4-1 6-7 4-2 5 1 3 5v8l-6 7-6 2 3 5 5 6v7l-4 7-8 6h-8l-6-4-4-5-1-8 2-6-3-5-4-1-4 9-5 1-6-4-4-8v-7l1-4 12-6v-3l-9-1-7-4-4-6-1-4v-7l3-5 5-4 8-1-2-9-2-4 1-8 5-6 2-1h8l6 4 4 2 5-5-1-7-6-4 2-4zm-26 46m8 0-6 1 5 4h5l3-4-4-1z" fill="#B027E3"/>
<path transform="translate(373,102)" d="m0 0h8l7 6-1 3-6 3-1 4 4 5v2l6-3 6-5 8 3 7 8 1 2v7l-6 10-1 2 7 1h6l5 5 1 9-6 10-14 7h-2l5 5 8 5 3 9-4 7-9 6h-4l-4-9h-6l-4 2v5l5 7-1 5-5 5-6 3-9-1-5-4-4-7v-6l6-11v-3l-7-4-4-7 1-8 5-4 6 2 7 6h2l4-12-4 1h-8l-8-7-3-5v-8l3-6 6-5 15-2v-3l-11-3-8-5-4-7 1-8 6-8zm28 47-5 5v2l4-1 3-4v-2z" fill="#DB34E4"/>
<path transform="translate(1449,163)" d="m0 0h14l10 2 4 4-1 4-7 1-4-1-2 1-5-2-19 1 4 2 1 2 13 2h6l4-1v2h6l2 1v2l7 1 5 9v3l3 1 3 10 2 1-2 2-4-2-6-9-8-7-15-4-11 1-10 5-7 7-4 7-2 10v8l3 10 7 8 6 4 14 4 6 1-5 5h-8l7 3 7-1 6-2 3-2 5 1 2-4 3-2 2-3 2 6-1 9-4 7-1 2h-2v2l-17 3h-14l-16-3-8-4-10-9-7-8-7-14-2-10v-17l4-16 7-12 8-8 10-6 9-4z" fill="#B027E3"/>
<path transform="translate(1695,161)" d="m0 0h13l8 3 4 4 3 6 5-1 8-7 8-3 5-1h9l1 1 1 7v20l-7 3-15 4-9 6-6 8-2 6-1 15-1 42-3 3-5 1h-15l-5-2-2-6v-101l3-7z" fill="#DC35E5"/>
<path transform="translate(1080,162)" d="m0 0h9l2 5v23l-21 7-8 6-4 5-4 8-2 11-1 47-3 4h-21l-3-1-1-3-1-19v-58l1-34h13l12 2 4 6 1 4 6-1 11-8z" fill="#B027E3"/>
<path transform="translate(1512,199)" d="m0 0 6 3v65l-2 19-4 11-8 11-9 7-10 4-15 2h-19l-21-3-14-5-6-5v-6l6-10 4-5 9 3 12 5 10 2h14l10-3 8-6 4-7 1-2h2l1-2 2 6 1-4-1-6 4-1 1 4 3-1 1 4-3 1v5l3 1 4-16 3-6 1-12-1-4 2-9 1-9-1-4v-24z" fill="#B127E3"/>
<path transform="translate(747,165)" d="m0 0h29v89l-1 22-2 2h-22l-3-3-1-6-1-28z" fill="#AF27E3"/>
<path transform="translate(433,184)" d="m0 0 5 1 3 5-2 9-8 16-7 11-13 18-7 11-5 13-3 13-2 2h-15l-24-1-3-7v-11l6-4h2l1-3 6-1-2 3 5-4h2l-2-10h4v2h4v-2l10-5 9-8h2v-7l4-3 5 2 3 1 2-2 6-7 6-9 5-15h2l1-6-2-1z" fill="#B027E3"/>
<path transform="translate(340,103)" d="m0 0 4 1v2l3 1 1 3v8l4-1 3 9 5 8-1 7-4 9-1 4v8l1 4v9l-1 3-1 12 5 13-2 12v6l6 9 8 7 7 3-5 4-1 4 1 7-7 5-2-1 1-2-3 1-5 5-2-1 6-8 1-8-3-6-5-3h-7l-6 4-2 3 1 8 3 6-1 2-4-1-4-7-1-12h-14l-5-3 2-1 2 1h9l9-4 5-8 1-6 1-19 3-6 4-6-4-9-2-5v-7l2-7-1-9-4-11v-7l5-12-1-8-4-8z" fill="#DA34E4"/>
<path transform="translate(303,290)" d="m0 0h94l4 3 1 3v7l-4 5-2 1h-91l-5-2-5-6v-5l6-5z" fill="#B228E3"/>
<path transform="translate(306,316)" d="m0 0 90 1 1 4v8l-2 3-16 3h-55l-14-1-7-2-3-4 1-6z" fill="#B127E3"/>
<path transform="translate(327,343)" d="m0 0h46l2 1-1 9-5 6-10 7-9 2-13-3-6-4-5-6-2-5v-6z" fill="#B127E3"/>
<path transform="translate(760,118)" d="m0 0 10 2 6 5 2 5v9l-4 7-10 5-9-1-6-4-4-5-1-2v-7l5-8 5-4z" fill="#B027E3"/>
<path transform="translate(318,103)" d="m0 0h10l6 4 4 5 1 2v9l-6 8-5 3-4 1h-10l-1 2-2-5v-6l5-2 2-3-1-7-6-4 2-4z" fill="#B428E3"/>
<path transform="translate(416,109)" d="m0 0 5 2 1 4 5 1 1-2 3 3 6 12 5 16 2 14v7l-3 3-4 1-3-10-2-3-2-11-5-11-2-6-2-4-1-5-5-10z" fill="#B127E3"/>
<path transform="translate(334,177)" d="m0 0 5 1 3 5v8l-6 7-6 2 3 5 5 6v7l-4 7-4 3 1-7-3-11-6-9v-7l-4-2v-5h5l7-8z" fill="#DA34E4"/>
<path transform="translate(1578,184)" d="m0 0 3 2v48l-1 5-4-2-2-3-2-7v-23l2-13 2-4z" fill="#B027E3"/>
<path transform="translate(1339,203)" d="m0 0 3 3 6 2 1 3h2l1 7 2 5-1 6-3 4-3-1-2 5-6 10h-2l-1 3-5 3h-2l-1 2-11 2v-2l11-4 8-6 5-8 2-6v-17l-4-9z" fill="#DC35E5"/>
<path transform="translate(325,142)" d="m0 0h8l4 4 3 7v8l-4 8-7 5-5-1-5-2 4-4h3v2h2v-2h2v-19l-4-1-2-4z" fill="#DC35E5"/>
<path transform="translate(1610,270)" d="m0 0h6l2 2-1 4-10 3-8 1h-15l-4-3 1-2h2v-2h14z" fill="#B228E3"/>
<path transform="translate(369,108)" d="m0 0h5l2 4-1 2v7l4 3v6l-3 2-9-1v-10h-2l1-11h3z" fill="#AF27E3"/>
<path transform="translate(1651,267)" d="m0 0h4l1 9-1 1-9 1h-15l-3-2 1-4 7-2h9z" fill="#B328E3"/>
<path transform="translate(470,85)" d="m0 0h4l-1 5-14 11-7 4-4-2v-4l9-7 10-6z" fill="#B127E3"/>
<path transform="translate(250,238)" d="m0 0 3 3-3 5-12 12-8 4-1-5 7-8 10-9z" fill="#B228E3"/>
<path transform="translate(226,85)" d="m0 0 7 1 10 7 5 6 1 5-3 1-16-11-5-6z" fill="#B228E3"/>
<path transform="translate(228,193)" d="m0 0 5 2-1 4-12 3-14 1-3-2 2-4 14-3z" fill="#B228E3"/>
<path transform="translate(469,193)" d="m0 0h7l16 4 2 2v4l-14-1-12-2v-6z" fill="#B328E3"/>
<path transform="translate(490,143)" d="m0 0 4 1v4l-7 3-12 2h-6l-1-1v-5l7-2z" fill="#B328E3"/>
<path transform="translate(1712,269)" d="m0 0 5 1 1 6-7 2h-15l-5-2 1-4 13-1z" fill="#B127E3"/>
<path transform="translate(404,220)" d="m0 0m-2 1 2 1-4 3-1 7-8 6-5 4-5 3h-3v2h-4l-2-4 3-4 12-4 8-7 5-6z" fill="#DC35E5"/>
<path transform="translate(1251,171)" d="m0 0h1l1 8v10l1-3 6-4 3-3h3v3l-5 3-5 9-2 7-1 29h-1l-1-6z" fill="#DC35E5"/>
<path transform="translate(374,210)" d="m0 0 3 2-1 5-5 3 7 2 8-1 3 2-7 6-4 1-4-1-4-6-3-3 1-4 2-4z" fill="#AF27E3"/>
<path transform="translate(204,143)" d="m0 0h8l13 4 4 3v2l-3 1-20-4-3-3z" fill="#B227E3"/>
<path transform="translate(1875,270)" d="m0 0 7 1v6l-1 1h-16l-5-3 1-2z" fill="#B127E3"/>
<path transform="translate(305,198)" d="m0 0h4v2l4 1h6l-3 13-8-1 1-5-3-5-4-3z" fill="#DC35E5"/>
<path transform="translate(448,241)" d="m0 0 6 1 9 7 3 5-1 4-8-4-8-8z" fill="#B328E3"/>
<path transform="translate(349,240)" d="m0 0 6 1 1 1v6l-4 4h-5l-3-4 1-5z" fill="#D432E4"/>
<path transform="translate(396,117)" d="m0 0 4 3 2 5 3 2 1 4h-3l-1 3-5-5-4-2-1-5 1-3z" fill="#B027E3"/>
<path transform="translate(315,125)" d="m0 0 5 3v5l9-2 5-4 2 1-5 5-7 2h-10l-1 2-2-5v-6z" fill="#DC35E5"/>
<path transform="translate(365,110)" d="m0 0 2 3-2 8h2l1 4-1 6-5-5-2-4 1-8z" fill="#DC35E5"/>
<path transform="translate(368,150)" d="m0 0 4 1 2 5v10h-3l-3-5-1-6z" fill="#AF27E3"/>
<path transform="translate(1424,171)" d="m0 0 2 1-5 4h-2l1 4h-2v2l-5 1-5 5-2 1 2-5 8-8z" fill="#DC35E5"/>
<path transform="translate(1484,290)" d="m0 0h3l1 4 2 1 1 4h-2l2 6-3 2-3-6 2-5-3-4z" fill="#DB34E4"/>
<path transform="translate(395,99)" d="m0 0h4l3 9h-4l-3-2-1-5z" fill="#AF27E3"/>
<path transform="translate(1260,163)" d="m0 0h10l5 1v1l-14 1-7 2-3 2 2-4z" fill="#DC35E5"/>
<path transform="translate(326,103)" d="m0 0 6 2 6 7 1 4-6-2-2-6v-2l-5-2z" fill="#DC35E5"/>
<path transform="translate(374,76)" d="m0 0 10 3 10 5-4 1-5-2-2-2-2 1v-3h-7z" fill="#DC35E5"/>
<path transform="translate(1273,175)" d="m0 0 9 1 5-1-2 4-9 1-3-3z" fill="#DA34E4"/>
<path transform="translate(414,158)" d="m0 0h2v2h2v12l-2 1-2-11z" fill="#AF27E3"/>
<path transform="translate(1652,196)" d="m0 0 3 1 1 5v8h-2l-3-8z" fill="#AF27E3"/>
<path transform="translate(381,104)" d="m0 0 6 3v4h-6l-1-1v-5z" fill="#B729E3"/>
<path transform="translate(1631,175)" d="m0 0 2 1-1 10-4-1v-8z" fill="#AF27E3"/>
<path transform="translate(1509,166)" d="m0 0h5l2 4h-2v3l-3 1-3-7z" fill="#AF27E3"/>
</svg>
